<svg height='100px' width='100px'  fill="#000000" xmlns="http://www.w3.org/2000/svg" data-name="Слой 1" viewBox="0 0 128 128" x="0px" y="0px"><title>Монтажная область 33</title><path d="M127.95,78.52a4.36,4.36,0,0,0-2.15-3.1c-3.12-1.93-10.27-3.54-17.19-.09-2.88,1.44-5.78,3.17-8.48,4.83a3.51,3.51,0,0,0-.21-.36c-.91-1.34-2.61-2-5.08-2-3.06,0-8.72,3-16.37,7.29a72.31,72.31,0,0,1-7.15,3.72c-1.6-.19-3.16-.34-4.86-.5-2.59-.25-5.54-.52-9.48-1a18.31,18.31,0,0,1-3.86-1.92A80.53,80.53,0,0,0,24.44,75C8.7,72.26,2,75.36,1.67,75.49A2,2,0,1,0,3.39,79.1c.06,0,6.1-2.65,20.37-.19a76.87,76.87,0,0,1,27.39,9.89C53.49,90.14,55,91,56.46,91.22c4,.54,7,.82,9.63,1.07a87.35,87.35,0,0,1,12.82,1.91c7.48,1.69,12.39,4.71,13.83,8.49a6.34,6.34,0,0,1-.74,5.86l-1.51,1c-3.09.64-10.09-1.37-14.16-2.54a45.34,45.34,0,0,0-8.55-2,116.26,116.26,0,0,0-25.67,1.89,2,2,0,1,0,.79,3.92A114,114,0,0,1,67.59,109a45.39,45.39,0,0,1,7.64,1.82c3.2.92,6.43,1.84,9.39,2.37C74.47,119.35,65.1,124,60.7,124,52,124,16.05,106.56,2.91,99.83a2,2,0,0,0-1.82,3.56c2,1,48.23,24.62,59.62,24.62,5.82,0,18.55-6.66,31.26-14.76a5.66,5.66,0,0,0,3-1.92C110,101.44,124.29,90.08,126,86a7.69,7.69,0,0,0,.72-3.18A6.34,6.34,0,0,0,127.95,78.52Zm-17.55.39c5.41-2.7,11-1.49,13.3-.09a1.15,1.15,0,0,1,.18.14c-2.3-.81-5.83-.31-10.58,1.51a44.7,44.7,0,0,0-9.74,5.23c-2.85,1.86-6.74,4.41-13.84,8.26a27.7,27.7,0,0,0-3.48-1.68c2.89-1.34,6.32-3,7.77-3.76,1.78-1,3.86-2.26,6.07-3.63C103.28,82.91,106.9,80.66,110.4,78.91Zm-30,9.66C85,86,92.59,81.79,94.85,81.79a3.29,3.29,0,0,1,1.81.3.37.37,0,0,1-.1-.21.39.39,0,0,1,0-.09l.55.22c-1.84,1.14-3.57,2.2-5,3-2.16,1.17-9.38,4.5-11.53,5.48l-.78-.19L78,89.91Zm41.92-4.11c-1.3,3-12.5,12-25.2,20.64a10.19,10.19,0,0,0-.67-3.86,12.7,12.7,0,0,0-3.22-4.68c6.22-3.43,9.81-5.78,12.49-7.53a41,41,0,0,1,9-4.84c5.61-2.16,7.74-1.65,8-1.42A3,3,0,0,1,122.35,84.47Z"></path><path d="M112.32,21.71c-1.24-2-7.53-2.24-18.69-.73-5.07.69-17.65,2.75-24.79,7-13.64,8-17,16.31-11.17,27.63a19.49,19.49,0,0,0-1.8,2.81C53.61,50.87,51.44,44.55,49.79,40c4.17-3.1,5.32-8.8,3-15.66-1.17-3.52-7.73-12.2-9-13.9C35.39-.58,34.12-.23,32.88.1a2.31,2.31,0,0,0-1.53,3,34,34,0,0,1,.08,6.63c-.22,5.69-.52,13.48,1.9,20.82,2.29,6.93,6.28,9.48,8.46,10.38a9.36,9.36,0,0,0,3.55.74,7.47,7.47,0,0,0,.77,0C47.78,46.21,50,52.65,52.28,60.3c.62,2.06,1.1,4,1.47,6a2,2,0,0,0,.14.71c2.2,11.91.24,20.42.2,20.59A2,2,0,0,0,55.54,90,2,2,0,0,0,56,90,2,2,0,0,0,58,88.5c.11-.44,2.28-9.6-.19-22.54a15,15,0,0,1,2.29-6.81,16.88,16.88,0,0,0,8.87,5.45,19.66,19.66,0,0,0,4.79.58,22.72,22.72,0,0,0,12.69-4c7-4.81,12.82-15.64,17.46-24.34,2.75-5.15,5.6-10.48,7.32-11.6S112.78,22.45,112.32,21.71Zm-69,15.48c-1.54-.64-4.4-2.52-6.19-7.94-2.19-6.65-1.91-14-1.7-19.41,0-1.18.09-2.27.1-3.27C40,11.72,48,22.51,49,25.6c1.53,4.58,1.25,8.16-.73,10.37-.91-2.4-1.46-3.75-1.48-3.78a2,2,0,0,0-3.7,1.52s.58,1.4,1.5,3.85A5.76,5.76,0,0,1,43.32,37.19Zm57-2.22c-4.44,8.32-10,18.66-16.19,22.92a18,18,0,0,1-14.25,2.83A13,13,0,0,1,62.66,56a20.5,20.5,0,0,1,6.41-4.14,2,2,0,0,0-1.37-3.76,24.59,24.59,0,0,0-7.09,4.36c-3.37-7.34-2.47-13.57,10.27-21.08C79.46,26.33,98.35,24,106.17,24h.64C105,26.26,103.08,29.85,100.35,35Z"></path></svg>