<svg height='100px' width='100px'  fill="#000000" xmlns="http://www.w3.org/2000/svg" xmlns:xlink="http://www.w3.org/1999/xlink" version="1.1" x="0px" y="0px" viewBox="0 0 512 512" style="enable-background:new 0 0 512 512;" xml:space="preserve"><g><g><g><g><g><path d="M170.401,279.781c-4.81,0-9.582-1.146-13.982-3.411c-15.011-7.728-20.937-26.228-13.209-41.241l55.398-107.612       c10.797-20.972,30.12-36.261,53.013-41.947l66.964-16.629c23.047-5.723,42.499-21.115,53.367-42.228       c0.85-1.651,2.32-2.896,4.088-3.463c1.769-0.566,3.689-0.407,5.34,0.443l78.004,40.157c3.438,1.77,4.789,5.99,3.02,9.428       l-33.037,64.175c-7.448,14.469-20.821,24.846-36.688,28.47l-124.244,28.367c-11.336,2.592-22.96-1.98-29.613-11.085       l-41.161,79.955c-3.743,7.271-10.095,12.65-17.884,15.146C176.698,279.292,173.542,279.781,170.401,279.781z M380.97,39.229       c-13.157,21.555-34.319,37.168-59.011,43.299l-66.963,16.629c-18.975,4.713-34.991,17.385-43.94,34.768l-55.398,107.611       c-4.194,8.149-0.978,18.191,7.169,22.386c3.947,2.031,8.45,2.404,12.678,1.051s7.676-4.273,9.708-8.22l48.276-93.777       c0.357-3.08,1.215-6.116,2.572-8.986c3.593-7.595,10.302-13.221,18.409-15.434l81.505-22.253       c3.729-1.018,7.579,1.18,8.597,4.909c1.019,3.729-1.18,7.578-4.909,8.597l-81.506,22.253c-4.157,1.135-7.598,4.02-9.44,7.914       c-0.47,0.993-0.823,2.024-1.059,3.075c0.19,1.173,0.085,2.403-0.354,3.572c0.045,1.933,0.473,3.86,1.282,5.67       c2.862,6.397,9.902,9.911,16.73,8.349l124.244-28.367c11.833-2.702,21.805-10.44,27.358-21.229l29.833-57.952L380.97,39.229z"></path></g><g><path d="M124.611,479.082c-1.104,0-2.204-0.262-3.204-0.776l-78.005-40.157c-1.65-0.85-2.896-2.32-3.462-4.089       c-0.566-1.768-0.407-3.688,0.443-5.339l33.037-64.174c7.45-14.471,20.822-24.848,36.689-28.47l124.245-28.368       c11.335-2.588,22.959,1.98,29.613,11.085l41.16-79.954c7.729-15.011,26.229-20.938,41.24-13.21       c15.012,7.729,20.938,26.229,13.21,41.241l-55.399,107.611c-10.797,20.973-30.119,36.262-53.012,41.947l-66.964,16.629       c-23.046,5.724-42.498,21.114-53.367,42.228c-0.85,1.65-2.32,2.896-4.088,3.462C126.05,478.972,125.33,479.082,124.611,479.082       z M56.034,428.905l65.784,33.865c13.157-21.555,34.319-37.168,59.01-43.3l66.964-16.629       c18.975-4.712,34.99-17.384,43.939-34.768l55.399-107.611c2.032-3.947,2.405-8.449,1.051-12.677s-4.274-7.675-8.222-9.708       c-3.947-2.033-8.448-2.406-12.677-1.051c-4.228,1.354-7.676,4.274-9.708,8.221l-48.275,93.775       c-0.357,3.081-1.215,6.116-2.572,8.986c-3.593,7.596-10.303,13.222-18.408,15.435l-81.507,22.253       c-3.733,1.017-7.579-1.181-8.597-4.909c-1.018-3.729,1.18-7.578,4.909-8.597l81.507-22.253c4.157-1.135,7.598-4.02,9.44-7.915       c0.47-0.992,0.823-2.024,1.059-3.075c-0.19-1.173-0.085-2.402,0.354-3.571c-0.046-1.934-0.473-3.861-1.282-5.671       c-2.861-6.398-9.893-9.905-16.731-8.349l-124.245,28.368c-11.832,2.701-21.803,10.439-27.358,21.229L56.034,428.905z"></path></g></g><g><path d="M85.394,199.082c-14.888,0-27-12.112-27-27s12.112-27,27-27s27,12.112,27,27S100.281,199.082,85.394,199.082z       M85.394,159.082c-7.168,0-13,5.832-13,13s5.832,13,13,13s13-5.832,13-13S92.562,159.082,85.394,159.082z"></path></g><g><path d="M375.394,489.082c-20.402,0-37-16.598-37-37s16.598-37,37-37s37,16.598,37,37S395.796,489.082,375.394,489.082z       M375.394,429.082c-12.683,0-23,10.317-23,23s10.317,23,23,23s23-10.317,23-23S388.076,429.082,375.394,429.082z"></path></g><g><path d="M445.394,299.082c-14.888,0-27-12.112-27-27s12.112-27,27-27s27,12.112,27,27S460.281,299.082,445.394,299.082z       M445.394,259.082c-7.168,0-13,5.832-13,13s5.832,13,13,13s13-5.832,13-13S452.562,259.082,445.394,259.082z"></path></g></g></g></g></svg>