<svg height='100px' width='100px'  fill="#000000" xmlns:x="http://ns.adobe.com/Extensibility/1.0/" xmlns:i="http://ns.adobe.com/AdobeIllustrator/10.0/" xmlns:graph="http://ns.adobe.com/Graphs/1.0/" xmlns="http://www.w3.org/2000/svg" xmlns:xlink="http://www.w3.org/1999/xlink" version="1.1" x="0px" y="0px" viewBox="0 0 100 100" style="enable-background:new 0 0 100 100;" xml:space="preserve"><g><g i:extraneous="self"><g><path d="M5273.1,2400.1v-2c0-2.8-5-4-9.7-4s-9.7,1.3-9.7,4v2c0,1.8,0.7,3.6,2,4.9l5,4.9c0.3,0.3,0.4,0.6,0.4,1v6.4     c0,0.4,0.2,0.7,0.6,0.8l2.9,0.9c0.5,0.1,1-0.2,1-0.8v-7.2c0-0.4,0.2-0.7,0.4-1l5.1-5C5272.4,2403.7,5273.1,2401.9,5273.1,2400.1z      M5263.4,2400c-4.8,0-7.4-1.3-7.5-1.8v0c0.1-0.5,2.7-1.8,7.5-1.8c4.8,0,7.3,1.3,7.5,1.8C5270.7,2398.7,5268.2,2400,5263.4,2400z"></path><path d="M5268.4,2410.3c-0.6,0-1,0.4-1,1c0,0.6,0.4,1,1,1h4.3c0.6,0,1-0.4,1-1c0-0.6-0.4-1-1-1H5268.4z"></path><path d="M5272.7,2413.7h-4.3c-0.6,0-1,0.4-1,1c0,0.6,0.4,1,1,1h4.3c0.6,0,1-0.4,1-1C5273.7,2414.1,5273.3,2413.7,5272.7,2413.7z"></path><path d="M5272.7,2417h-4.3c-0.6,0-1,0.4-1,1c0,0.6,0.4,1,1,1h4.3c0.6,0,1-0.4,1-1C5273.7,2417.5,5273.3,2417,5272.7,2417z"></path></g><g><path d="M93.2,37c-3.1-2-7.2-1.1-9.3,2l-6.8,10.2c-1.7-0.2-3.4,0.3-4.7,1.5l-14,12.2c-2.1,1.8-3.4,4.3-3.9,7l-1.9,12.9v12.2     c0,1.4,1.1,2.4,2.4,2.4h17c1.4,0,2.4-1.1,2.4-2.4V84.6l10-7.8c3.5-2.8,6-6.7,7-11.1l4.7-21.5C96.8,41.5,95.6,38.6,93.2,37z      M57.5,92.6l0-6.8h12.1v6.8H57.5z M86.7,64.6c-0.7,3.3-2.6,6.2-5.2,8.3l-10.3,8H57.8l1.6-10.3c0.2-1.6,1-3,2.2-4.1l14-12.2     c0.5-0.4,1.1-0.4,1.6,0c0.4,0.4,0.5,1,0.2,1.5L75,59.9c-0.9,1.5-2.1,2.9-3.4,4l-3.9,3.5c-1,0.9-1.1,2.5-0.2,3.5     c0.9,1,2.5,1.1,3.5,0.2l3.9-3.5c1.6-1.5,3.1-3.2,4.2-5.1l2.5-3.9c1.4-2.2,1.2-4.8-0.2-6.8l6.6-10c0.6-0.9,1.7-1.1,2.6-0.6     c0.7,0.4,1,1.2,0.8,2L86.7,64.6z"></path><path d="M45.4,69.9c-0.4-2.7-1.8-5.2-3.9-7l-14-12.2c-1.3-1.2-3-1.7-4.7-1.5L16.1,39c-2.1-3.1-6.1-4-9.3-2     c-2.4,1.5-3.6,4.4-3,7.2l4.7,21.5c1,4.4,3.4,8.3,7,11.1l10,7.8v10.5c0,1.4,1.1,2.4,2.4,2.4h17c1.4,0,2.4-1.1,2.4-2.4l0-12.6     L45.4,69.9z M18.5,72.9c-2.6-2.1-4.5-5-5.2-8.3L8.6,43.2c-0.2-0.8,0.2-1.6,0.8-2c0.9-0.5,2-0.3,2.6,0.6l6.6,10     c-1.5,2-1.6,4.7-0.2,6.8l2.5,3.9c1.2,1.9,2.6,3.6,4.2,5.1l3.9,3.5c1,0.9,2.5,0.8,3.5-0.2c0.9-1,0.8-2.6-0.2-3.5l-3.9-3.5     c-1.3-1.2-2.4-2.5-3.4-4l-2.5-3.9c-0.3-0.5-0.2-1.2,0.2-1.5c0.5-0.4,1.1-0.4,1.6,0l14,12.2c1.2,1,2,2.5,2.2,4.1l1.6,10.3H28.8     L18.5,72.9z M30.4,92.6v-6.8h12.1v6.8H30.4z"></path><path d="M76.7,32.5c3.5-3.5,5.4-8.3,5.1-13.3c-0.2-4.9-2.6-9.6-6.4-12.8c-6.9-5.7-17.5-5-24.1,1.6l-1.4,1.4L48,7.7     c-3.5-3.5-8.3-5.4-13.3-5.1C29.7,2.8,25.2,5,22,8.9c-5.7,6.9-5,17.5,1.6,24.1l21.6,21.6c1.3,1.3,3,2,4.8,2s3.4-0.7,4.8-2     L76.7,32.5z M48.6,51.1L27.1,29.5C22.2,24.7,21.7,17,25.8,12c2.3-2.8,5.6-4.5,9.2-4.6c0.2,0,0.4,0,0.6,0c3.4,0,6.6,1.3,9,3.7     l3.6,3.6c1,1,2.5,1,3.5,0l3.2-3.2c4.8-4.8,12.5-5.4,17.5-1.3c2.8,2.3,4.5,5.6,4.6,9.2c0.2,3.6-1.2,7.1-3.7,9.6l-22,22     C50.5,51.8,49.3,51.8,48.6,51.1z"></path></g></g></g></svg>